<svg width="200" height="200" viewBox="0 0 200 200" fill="none" xmlns="http://www.w3.org/2000/svg">
  <defs>
    <linearGradient id="leo-bg" x1="26" y1="18" x2="172" y2="178" gradientUnits="userSpaceOnUse">
      <stop stop-color="#FFF9EB"/>
      <stop offset="1" stop-color="#FFE6A8"/>
    </linearGradient>
    <linearGradient id="leo-jacket" x1="60" y1="120" x2="140" y2="170" gradientUnits="userSpaceOnUse">
      <stop stop-color="#132642"/>
      <stop offset="1" stop-color="#091523"/>
    </linearGradient>
    <linearGradient id="leo-shirt" x1="80" y1="115" x2="121" y2="150" gradientUnits="userSpaceOnUse">
      <stop stop-color="#FFD45B"/>
      <stop offset="1" stop-color="#F2B61E"/>
    </linearGradient>
    <radialGradient id="leo-skin" cx="0" cy="0" r="1" gradientUnits="userSpaceOnUse" gradientTransform="translate(100 81) rotate(90) scale(40 34)">
      <stop stop-color="#FFD7B7"/>
      <stop offset="1" stop-color="#DCA27E"/>
    </radialGradient>
  </defs>
  <rect x="12" y="12" width="176" height="176" rx="44" fill="url(#leo-bg)"/>
  <rect x="24" y="24" width="152" height="152" rx="38" fill="#FFFFFF" fill-opacity="0.28"/>
  <circle cx="100" cy="82" r="56" fill="#FFFFFF" fill-opacity="0.22"/>
  <path d="M47 168C55 134 74 117 100 117C127 117 145 134 153 168H47Z" fill="url(#leo-jacket)"/>
  <path d="M78 116C84 110 91 108 100 108C110 108 117 110 123 116L128 168H72L78 116Z" fill="url(#leo-shirt)"/>
  <path d="M84 116H116L107 132H93L84 116Z" fill="#FFFFFF" fill-opacity="0.94"/>
  <rect x="92" y="104" width="16" height="22" rx="8" fill="#DDA27D"/>
  <ellipse cx="100" cy="80" rx="31" ry="38" fill="url(#leo-skin)"/>
  <path d="M68 84C68 57 83 40 101 40C120 40 132 53 132 82V92H68V84Z" fill="#5A3319"/>
  <path d="M72 61C77 45 88 37 101 37C117 37 129 46 132 61C122 69 111 73 100 73C89 73 79 69 72 61Z" fill="#6B3D1C"/>
  <path d="M76 47C82 40 91 36 101 36C114 36 124 42 130 51C122 57 111 61 100 61C90 61 82 57 76 47Z" fill="#7B4A26"/>
  <ellipse cx="88" cy="81" rx="3.5" ry="4.5" fill="#10233E"/>
  <ellipse cx="113" cy="81" rx="3.5" ry="4.5" fill="#10233E"/>
  <path d="M100 84C101 90 100 95 97 98" stroke="#BF7B61" stroke-width="2.2" stroke-linecap="round"/>
  <path d="M90 103C94 106 106 106 110 102" stroke="#A85D55" stroke-width="2.5" stroke-linecap="round"/>
  <rect x="34" y="30" width="38" height="38" rx="14" fill="#FFFFFF" fill-opacity="0.96"/>
  <path d="M44 54L52 42L60 54" stroke="#F0B922" stroke-width="4" stroke-linecap="round" stroke-linejoin="round"/>
  <path d="M46 47H58" stroke="#F0B922" stroke-width="4" stroke-linecap="round"/>
</svg>
