<svg width="200" height="200" viewBox="0 0 200 200" fill="none" xmlns="http://www.w3.org/2000/svg">
  <rect x="12" y="12" width="176" height="176" rx="44" fill="#FFF8E8"/>
  <rect x="24" y="24" width="152" height="152" rx="38" fill="#FFE9AA"/>
  <rect x="42" y="116" width="116" height="44" rx="22" fill="#10233E"/>
  <rect x="60" y="90" width="80" height="38" rx="19" fill="#FFC928"/>
  <ellipse cx="100" cy="84" rx="28" ry="31" fill="#FFD7B6"/>
  <path d="M70 82C70 58 83 48 99 48C116 48 130 58 130 84V92H70V82Z" fill="#5C3419"/>
  <path d="M72 68C76 54 88 46 102 46C116 46 126 54 128 68C118 74 107 76 101 76C92 76 81 74 72 68Z" fill="#6B3D1C"/>
  <rect x="74" y="78" width="10" height="10" rx="5" fill="#10233E"/>
  <rect x="116" y="78" width="10" height="10" rx="5" fill="#10233E"/>
  <rect x="92" y="92" width="16" height="7" rx="3.5" fill="#E58C7B"/>
  <rect x="34" y="30" width="38" height="38" rx="14" fill="#F8FBFF"/>
  <rect x="44" y="42" width="18" height="14" rx="5" fill="#FFC928"/>
  <rect x="72" y="124" width="56" height="8" rx="4" fill="#F8FBFF" fill-opacity="0.88"/>
</svg>
