<svg width="960" height="720" viewBox="0 0 960 720" fill="none" xmlns="http://www.w3.org/2000/svg">
  <rect width="960" height="720" rx="44" fill="url(#paint0_linear_1_2)"/>
  <rect x="48" y="48" width="864" height="624" rx="34" fill="#F8FBFF" fill-opacity="0.72"/>
  <rect x="80" y="92" width="800" height="536" rx="26" fill="#EAF2FF"/>

  <g opacity="0.9">
    <rect x="670" y="118" width="144" height="144" rx="24" transform="rotate(-12 670 118)" fill="#0D5EFF"/>
    <rect x="738" y="108" width="98" height="98" rx="18" transform="rotate(10 738 108)" fill="#FF3152"/>
    <rect x="782" y="164" width="78" height="78" rx="16" transform="rotate(-18 782 164)" fill="#FFC928"/>
  </g>

  <g opacity="0.94">
    <rect x="134" y="410" width="692" height="118" rx="24" fill="#DCE9FF"/>
    <rect x="116" y="504" width="728" height="54" rx="22" fill="#C9DDFF"/>
    <rect x="102" y="548" width="756" height="42" rx="21" fill="#B5D2FF"/>
  </g>

  <g>
    <rect x="512" y="186" width="250" height="168" rx="24" fill="#10233E"/>
    <rect x="530" y="204" width="214" height="132" rx="18" fill="#FDFEFF"/>
    <rect x="546" y="224" width="70" height="84" rx="14" fill="#EDF4FF"/>
    <rect x="626" y="224" width="100" height="22" rx="11" fill="#D5E5FF"/>
    <rect x="626" y="254" width="72" height="16" rx="8" fill="#C4DAFF"/>
    <rect x="626" y="278" width="88" height="16" rx="8" fill="#C4DAFF"/>
    <rect x="626" y="302" width="58" height="16" rx="8" fill="#C4DAFF"/>
    <rect x="560" y="240" width="42" height="54" rx="12" fill="#0D5EFF"/>
    <rect x="558" y="278" width="46" height="16" rx="8" fill="#FF3152"/>
    <rect x="548" y="196" width="178" height="12" rx="6" fill="#E6EEFF"/>
    <circle cx="703" cy="206" r="6" fill="#00B876"/>
    <circle cx="722" cy="206" r="6" fill="#FFC928"/>
  </g>

  <g>
    <rect x="270" y="296" width="112" height="112" rx="18" fill="#FFD8A3"/>
    <rect x="252" y="388" width="148" height="110" rx="26" fill="#0D5EFF"/>
    <rect x="248" y="484" width="68" height="74" rx="18" fill="#10233E"/>
    <rect x="336" y="484" width="68" height="74" rx="18" fill="#10233E"/>
    <rect x="224" y="404" width="44" height="112" rx="20" fill="#FF3152"/>
    <rect x="384" y="404" width="44" height="112" rx="20" fill="#FF3152"/>
    <rect x="250" y="268" width="152" height="60" rx="24" fill="#10233E"/>
    <rect x="304" y="258" width="44" height="44" rx="8" transform="rotate(-12 304 258)" fill="#FF3152"/>
    <rect x="319" y="272" width="14" height="14" rx="3" fill="white"/>
    <circle cx="304" cy="343" r="8" fill="#10233E"/>
    <circle cx="348" cy="343" r="8" fill="#10233E"/>
    <rect x="305" y="367" width="42" height="10" rx="5" fill="#D26F5D"/>
  </g>

  <g>
    <rect x="154" y="240" width="152" height="118" rx="24" fill="#FFFFFF"/>
    <rect x="176" y="264" width="54" height="54" rx="14" fill="#0D5EFF"/>
    <rect x="242" y="264" width="42" height="12" rx="6" fill="#D2E3FF"/>
    <rect x="242" y="284" width="34" height="12" rx="6" fill="#D2E3FF"/>
    <rect x="242" y="304" width="26" height="12" rx="6" fill="#D2E3FF"/>
    <rect x="176" y="330" width="108" height="10" rx="5" fill="#EEF4FF"/>
  </g>

  <g>
    <rect x="588" y="382" width="212" height="124" rx="22" fill="#FFFFFF"/>
    <rect x="610" y="404" width="170" height="16" rx="8" fill="#EEF4FF"/>
    <rect x="610" y="432" width="120" height="50" rx="16" fill="#0D5EFF"/>
    <rect x="738" y="432" width="42" height="50" rx="14" fill="#FF3152"/>
    <rect x="626" y="446" width="52" height="8" rx="4" fill="#FFFFFF" fill-opacity="0.92"/>
    <rect x="626" y="462" width="70" height="8" rx="4" fill="#FFFFFF" fill-opacity="0.82"/>
  </g>

  <g opacity="0.86">
    <rect x="472" y="444" width="56" height="56" rx="12" transform="rotate(-18 472 444)" fill="#FFC928"/>
    <rect x="450" y="404" width="72" height="72" rx="16" transform="rotate(16 450 404)" fill="#00B876"/>
  </g>

  <defs>
    <linearGradient id="paint0_linear_1_2" x1="480" y1="0" x2="480" y2="720" gradientUnits="userSpaceOnUse">
      <stop stop-color="#D7E7FF"/>
      <stop offset="0.5" stop-color="#EEF5FF"/>
      <stop offset="1" stop-color="#DCE8FF"/>
    </linearGradient>
  </defs>
</svg>

